<?xml version="1.0" encoding="UTF-8"?><svg id="Livello_1" xmlns="http://www.w3.org/2000/svg" viewBox="0 0 435.56 203.71"><path d="M385.69,149.85h-.4s-.4,0-.4,0c-1.57-1.61-1.57-3.22-.01-4.84.27-.01.54,0,.82,0v4.83Z" fill="#f3f3f3"/><path d="M146.54,82.24c-7.82,11.41-15.03,21.93-22.24,32.44-1.25,1.83-3.17,1.22-4.87,1.23-14.4.03-28.79.16-43.19-.07-3.74-.06-4.51,1.01-4.41,4.56.28,9.97,0,19.95.16,29.93.06,3.75-.9,5.48-5.16,5.31-8.4-.33-16.82-.19-25.23-.04-2.96.05-4.01-1.01-4-3.9.1-21.88.13-43.77.15-65.65,0-2.36.3-3.87,3.36-3.87,34.76.09,69.52.06,105.4.06Z" fill="#282b2d"/><path d="M38.05,35.6c7.59-7.85,14.33-14.84,21.09-21.8,1.12-1.15,2.66-2.02,3.44-3.35,4.18-7.13,10.64-7.63,18.13-7.58,39.79.28,79.59.13,119.38.13,1.54,0,3.08,0,5.32,0-4.93,5.8-11.25,8.42-16.61,12.25-9.12,6.51-18.62,12.5-27.89,18.82-1.68,1.14-3.28,1.83-5.33,1.82-38.18-.04-76.35-.03-114.53-.04-.58,0-1.17-.09-2.99-.25Z" fill="#282b2d"/><path d="M384.88,145.01c0,1.61,0,3.23.01,4.84.48,4.54-1.43,6.07-6.09,5.86-8.39-.38-16.81-.17-25.21-.07-2.62.03-3.68-.77-3.84-3.55-.85-14.91-5.49-20.3-20.75-24.5-11.7-3.22-23.7-5.19-35.37-8.61-16.06-4.7-16.11-4.48-16.05-21.11.03-7.67,0-15.35,0-24.22,12.2,14.55,29.06,15.45,44.73,19.29,14.07,3.45,28.3,6.63,40.76,14.43,13.84,8.66,20.38,21.74,21.8,37.63Z" fill="#2a2c2e"/><path d="M277.95,46.65c-1.2-4.58-.56-8.75-.64-12.85-.13-7.55.15-15.12-.17-22.66-.16-3.75,1.72-5.02,4.74-6.09C293.91.81,306.31-.3,318.97.06c20.29.58,38.8,6.54,55.83,17.42,2.04,1.3,2.69,1.99,1,4.25-5.45,7.28-10.7,14.72-15.83,22.23-1.75,2.56-3.08.73-4.3-.07-8.67-5.66-18.12-9.82-28.26-11.35-14.81-2.24-29.51-2.08-42.78,6.81-2.8,1.87-4.53,4.36-6.67,7.29Z" fill="#282b2d"/><path d="M158.57,30.99c.56-.37.88-.75,1.23-.77.28-.02.58.4.87.63-.31.29-.59.72-.95.81-.26.06-.63-.35-1.15-.67Z" fill="#223029"/><polygon points="230 4.2 160.42 49.91 160.42 103.24 188.35 84.7 188.35 65.15 230 38.99 230 4.2" fill="#4c90c4"/><polyline points="160.42 103.24 263.26 156.57 263.26 94.86 230 77.33 230 104.51 188.35 84.7" fill="#4073b1"/><path d="M229.56,4.24l31.74,16.76v38.35s-6.09,28.44-30.22,21.08l-1.52-3.05h-5.19l5.95-8.13-.76-65.01Z" fill="#4073b0"/><path d="M0,182.18h12.95v3.93H4.81v4.84h7.61v3.9h-7.61v8.52H0v-21.19Z" fill="#2a2c2e"/><path d="M16.72,198.43c1.29.66,3.27,1.32,5.31,1.32,2.2,0,3.36-.91,3.36-2.29s-1.01-2.08-3.55-2.99c-3.52-1.23-5.82-3.17-5.82-6.25,0-3.62,3.02-6.38,8.02-6.38,2.39,0,4.15.5,5.41,1.07l-1.07,3.87c-.85-.41-2.36-1.01-4.43-1.01s-3.08.94-3.08,2.04c0,1.35,1.19,1.95,3.93,2.99,3.74,1.38,5.5,3.33,5.5,6.32,0,3.55-2.73,6.57-8.55,6.57-2.42,0-4.81-.63-6-1.29l.97-3.96Z" fill="#2a2c2e"/><path d="M39.89,182.46c1.26-.25,3.8-.44,6.19-.44,2.92,0,4.71.28,6.25,1.19,1.48.79,2.55,2.23,2.55,4.15s-1.1,3.65-3.49,4.53v.06c2.42.66,4.21,2.48,4.21,5.22,0,1.92-.88,3.43-2.2,4.5-1.54,1.23-4.12,1.92-8.33,1.92-2.36,0-4.12-.16-5.19-.31v-20.81ZM44.63,190.57h1.57c2.51,0,3.87-1.04,3.87-2.61s-1.23-2.45-3.39-2.45c-1.04,0-1.63.06-2.04.12v4.94ZM44.63,199.97c.47.06,1.04.06,1.85.06,2.17,0,4.09-.82,4.09-3.05s-1.92-2.99-4.31-2.99h-1.63v5.97Z" fill="#2a2c2e"/><path d="M58.87,182.46c1.54-.25,3.83-.44,6.38-.44,3.14,0,5.34.47,6.85,1.67,1.26,1.01,1.95,2.48,1.95,4.43,0,2.7-1.92,4.56-3.74,5.22v.09c1.48.6,2.29,2.01,2.83,3.96.66,2.39,1.32,5.16,1.73,5.97h-4.9c-.35-.6-.85-2.33-1.48-4.93-.57-2.64-1.48-3.36-3.43-3.4h-1.45v8.33h-4.75v-20.9ZM63.62,191.58h1.89c2.39,0,3.8-1.19,3.8-3.05,0-1.95-1.32-2.92-3.52-2.96-1.16,0-1.82.09-2.17.16v5.85Z" fill="#2a2c2e"/><path d="M96.78,192.55c0,6.95-4.21,11.16-10.4,11.16s-9.96-4.75-9.96-10.78c0-6.35,4.05-11.1,10.31-11.1s10.06,4.87,10.06,10.72ZM81.47,192.83c0,4.15,1.95,7.07,5.16,7.07s5.09-3.08,5.09-7.2c0-3.8-1.82-7.07-5.12-7.07s-5.12,3.08-5.12,7.2Z" fill="#2a2c2e"/><path d="M103.13,186.2h-5.69v-4.02h16.28v4.02h-5.78v17.16h-4.81v-17.16Z" fill="#2a2c2e"/><path d="M121.08,182.18v8.14h7.89v-8.14h4.78v21.19h-4.78v-8.86h-7.89v8.86h-4.81v-21.19h4.81Z" fill="#2a2c2e"/><path d="M150.53,194.41h-7.8v5.03h8.71v3.93h-13.52v-21.19h13.08v3.93h-8.27v4.4h7.8v3.9Z" fill="#2a2c2e"/><path d="M154.71,182.46c1.54-.25,3.83-.44,6.38-.44,3.14,0,5.34.47,6.85,1.67,1.26,1.01,1.95,2.48,1.95,4.43,0,2.7-1.92,4.56-3.74,5.22v.09c1.48.6,2.29,2.01,2.83,3.96.66,2.39,1.32,5.16,1.73,5.97h-4.9c-.35-.6-.85-2.33-1.48-4.93-.57-2.64-1.48-3.36-3.43-3.4h-1.45v8.33h-4.75v-20.9ZM159.46,191.58h1.89c2.39,0,3.8-1.19,3.8-3.05,0-1.95-1.32-2.92-3.52-2.96-1.16,0-1.82.09-2.17.16v5.85Z" fill="#2a2c2e"/><path d="M173.51,198.43c1.29.66,3.27,1.32,5.31,1.32,2.2,0,3.36-.91,3.36-2.29s-1.01-2.08-3.55-2.99c-3.52-1.23-5.82-3.17-5.82-6.25,0-3.62,3.02-6.38,8.02-6.38,2.39,0,4.15.5,5.41,1.07l-1.07,3.87c-.85-.41-2.36-1.01-4.43-1.01s-3.08.94-3.08,2.04c0,1.35,1.19,1.95,3.93,2.99,3.74,1.38,5.5,3.33,5.5,6.32,0,3.55-2.73,6.57-8.55,6.57-2.42,0-4.81-.63-6-1.29l.97-3.96Z" fill="#2a2c2e"/><path d="M210.16,203.36c-.44-.47-.88-.94-1.38-1.51-1.38,1.07-3.3,1.85-5.81,1.85-5.12,0-7.39-3.05-7.39-6,0-2.8,1.6-4.81,4.02-6.07v-.13c-.91-1.01-1.6-2.58-1.6-4.09,0-2.67,2.11-5.59,6.35-5.59,3.27,0,5.75,1.92,5.75,4.97,0,2.14-1.26,3.96-4.18,5.44l-.03.12c1.23,1.35,2.51,2.89,3.55,3.96.85-1.32,1.51-3.27,1.79-5.16h4.27c-.57,3.21-1.63,5.94-3.52,8.05,1.2,1.35,2.42,2.74,3.74,4.15h-5.56ZM206.55,199.18c-1.32-1.32-3.05-3.24-4.78-5.19-.88.63-1.67,1.54-1.67,2.92,0,1.79,1.35,3.33,3.52,3.33,1.26,0,2.29-.47,2.92-1.07ZM202.27,186.99c0,1.07.5,2.01,1.45,3.05,1.54-1.07,2.33-1.89,2.33-3.11,0-1.01-.6-2.11-1.85-2.11s-1.92,1.07-1.92,2.17Z" fill="#2a2c2e"/><path d="M224.34,182.46c1.26-.25,3.8-.44,6.19-.44,2.92,0,4.71.28,6.26,1.19,1.48.79,2.55,2.23,2.55,4.15s-1.1,3.65-3.49,4.53v.06c2.42.66,4.21,2.48,4.21,5.22,0,1.92-.88,3.43-2.2,4.5-1.54,1.23-4.12,1.92-8.33,1.92-2.36,0-4.12-.16-5.19-.31v-20.81ZM229.08,190.57h1.57c2.51,0,3.87-1.04,3.87-2.61s-1.23-2.45-3.39-2.45c-1.04,0-1.63.06-2.04.12v4.94ZM229.08,199.97c.47.06,1.04.06,1.85.06,2.17,0,4.09-.82,4.09-3.05s-1.92-2.99-4.31-2.99h-1.63v5.97Z" fill="#2a2c2e"/><path d="M243.32,182.46c1.54-.25,3.83-.44,6.38-.44,3.14,0,5.34.47,6.85,1.67,1.26,1.01,1.95,2.48,1.95,4.43,0,2.7-1.92,4.56-3.74,5.22v.09c1.48.6,2.29,2.01,2.83,3.96.66,2.39,1.32,5.16,1.73,5.97h-4.9c-.35-.6-.85-2.33-1.48-4.93-.57-2.64-1.48-3.36-3.43-3.4h-1.45v8.33h-4.75v-20.9ZM248.07,191.58h1.89c2.39,0,3.8-1.19,3.8-3.05,0-1.95-1.32-2.92-3.52-2.96-1.16,0-1.82.09-2.17.16v5.85Z" fill="#2a2c2e"/><path d="M281.23,192.55c0,6.95-4.21,11.16-10.4,11.16s-9.96-4.75-9.96-10.78c0-6.35,4.05-11.1,10.31-11.1s10.06,4.87,10.06,10.72ZM265.92,192.83c0,4.15,1.95,7.07,5.16,7.07s5.09-3.08,5.09-7.2c0-3.8-1.82-7.07-5.12-7.07s-5.12,3.08-5.12,7.2Z" fill="#2a2c2e"/><path d="M284.37,182.18h4.75v9.37h.09c.47-.82.97-1.57,1.45-2.33l4.81-7.04h5.88l-7.01,9.02,7.39,12.17h-5.59l-5.19-9.15-1.82,2.23v6.92h-4.75v-21.19Z" fill="#2a2c2e"/><path d="M316.28,194.41h-7.8v5.03h8.71v3.93h-13.52v-21.19h13.08v3.93h-8.27v4.4h7.8v3.9Z" fill="#2a2c2e"/><path d="M320.46,182.46c1.54-.25,3.83-.44,6.38-.44,3.14,0,5.34.47,6.85,1.67,1.26,1.01,1.95,2.48,1.95,4.43,0,2.7-1.92,4.56-3.74,5.22v.09c1.48.6,2.29,2.01,2.83,3.96.66,2.39,1.32,5.16,1.73,5.97h-4.9c-.35-.6-.85-2.33-1.48-4.93-.57-2.64-1.48-3.36-3.43-3.4h-1.45v8.33h-4.75v-20.9ZM325.2,191.58h1.89c2.39,0,3.8-1.19,3.8-3.05,0-1.95-1.32-2.92-3.52-2.96-1.16,0-1.82.09-2.17.16v5.85Z" fill="#2a2c2e"/><path d="M339.25,198.43c1.29.66,3.27,1.32,5.31,1.32,2.2,0,3.36-.91,3.36-2.29s-1.01-2.08-3.55-2.99c-3.52-1.23-5.82-3.17-5.82-6.25,0-3.62,3.02-6.38,8.02-6.38,2.39,0,4.15.5,5.41,1.07l-1.07,3.87c-.85-.41-2.36-1.01-4.43-1.01s-3.08.94-3.08,2.04c0,1.35,1.19,1.95,3.93,2.99,3.74,1.38,5.5,3.33,5.5,6.32,0,3.55-2.73,6.57-8.55,6.57-2.42,0-4.81-.63-6-1.29l.97-3.96Z" fill="#2a2c2e"/><path d="M362.58,198.43c1.29.66,3.27,1.32,5.31,1.32,2.2,0,3.36-.91,3.36-2.29s-1.01-2.08-3.55-2.99c-3.52-1.23-5.82-3.17-5.82-6.25,0-3.62,3.02-6.38,8.02-6.38,2.39,0,4.15.5,5.41,1.07l-1.07,3.87c-.85-.41-2.36-1.01-4.43-1.01s-3.08.94-3.08,2.04c0,1.35,1.19,1.95,3.93,2.99,3.74,1.38,5.5,3.33,5.5,6.32,0,3.55-2.73,6.57-8.55,6.57-2.42,0-4.81-.63-6-1.29l.97-3.96Z" fill="#2a2c2e"/><path d="M378.89,200.82c0-1.7,1.16-2.92,2.83-2.92s2.8,1.19,2.8,2.92-1.13,2.89-2.83,2.89-2.8-1.23-2.8-2.89Z" fill="#2a2c2e"/><path d="M387.57,182.46c1.54-.25,3.83-.44,6.38-.44,3.14,0,5.34.47,6.85,1.67,1.26,1.01,1.95,2.48,1.95,4.43,0,2.7-1.92,4.56-3.74,5.22v.09c1.48.6,2.29,2.01,2.83,3.96.66,2.39,1.32,5.16,1.73,5.97h-4.9c-.35-.6-.85-2.33-1.48-4.93-.57-2.64-1.48-3.36-3.43-3.4h-1.45v8.33h-4.75v-20.9ZM392.31,191.58h1.89c2.39,0,3.8-1.19,3.8-3.05,0-1.95-1.32-2.92-3.52-2.96-1.16,0-1.82.09-2.17.16v5.85Z" fill="#2a2c2e"/><path d="M405.7,200.82c0-1.7,1.16-2.92,2.83-2.92s2.8,1.19,2.8,2.92-1.13,2.89-2.83,2.89-2.8-1.23-2.8-2.89Z" fill="#2a2c2e"/><path d="M414.38,182.18h4.81v17.16h8.42v4.02h-13.23v-21.19Z" fill="#2a2c2e"/><path d="M429.94,200.82c0-1.7,1.16-2.92,2.83-2.92s2.8,1.19,2.8,2.92-1.13,2.89-2.83,2.89-2.8-1.23-2.8-2.89Z" fill="#2a2c2e"/></svg>